<svg width="23" height="23" viewBox="0 0 23 23" fill="none" xmlns="http://www.w3.org/2000/svg">
<circle cx="11.5" cy="11.5" r="11" stroke="white"/>
<path d="M13.1477 6.36364L12.8864 14.4375H10.5511L10.2898 6.36364H13.1477ZM11.7159 18.1648C11.3106 18.1648 10.9621 18.0208 10.6705 17.733C10.3826 17.4451 10.2386 17.0966 10.2386 16.6875C10.2386 16.286 10.3826 15.9432 10.6705 15.6591C10.9621 15.3712 11.3106 15.2273 11.7159 15.2273C12.1061 15.2273 12.4489 15.3712 12.7443 15.6591C13.0436 15.9432 13.1932 16.286 13.1932 16.6875C13.1932 16.9602 13.1231 17.2083 12.983 17.4318C12.8466 17.6553 12.6667 17.8333 12.4432 17.9659C12.2235 18.0985 11.9811 18.1648 11.7159 18.1648Z" fill="white"/>
</svg>
